Patient4_TMGait_0pt2_03_right_05_EMG.mot
version=1
nRows=39
nColumns=33
inDegrees=no
endheader
time	1LAddLong	2LGlutMax	3LGlutMed	4LIliopsoas	5LSemiMemb	6LBicFemLong	7LRecFem	8LVastMed	9LVastLat	10LGasMed	11LTibAnt	12lTibPost	13LPeroneusLong	14LSol	15LExtDigLong	16LFlexDigLong	17RAddLong	18RGlutMax	19RGlutMed	20RIliopsoas	21RSemiMemb	22RBicFemLong	23RRecFem	24RVastMed	25RVastLat	26RGasMed	27RTibAnt	28RTibPost	29RPeroneusLong	30RSol	31RExtDigLong	32RFlexDigLong
10.56	-0.000458	-0.001221	-0.1268	0.01297	0.031281	-0.03952	0.11093	-0.000458	-0.60364	-0.000763	0.22492	-0.001678	-0.29098	-0.045471	0.063629	0.013733	0.000916	-0.10346	0.15198	0.14969	0.10544	0.010223	-0.43823	-0.02243	0.019836	-0.006561	0.045166	-0.003815	0.070038	-0.087433	-0.000458	0.008698
10.561	0.012207	0.015259	-0.15427	0.007629	0.040283	-0.048065	0.21622	-0.001831	-0.24841	-0.005188	0.18692	-0.000153	-0.28549	0.002594	0.10712	-0.001831	-0.002594	-0.035248	0.06424	0.065308	0.10407	-0.001221	-0.42191	-0.015564	0.004272	-0.009308	0.14862	-0.000916	-0.13077	-0.062561	0.001373	0.015411
10.562	0.02655	0.024414	-0.09903	-0.005035	0	0.040741	0.11124	-0.005493	0.047913	-0.022125	0.10284	0.011139	-0.061035	0.003967	0.19165	0.02121	-0.003052	-0.024872	0.11978	0.000916	0.10666	0.015564	-0.63446	-0.066986	0.003052	0.001984	0.41336	-0.00351	-0.32761	-0.022888	-0.000153	0.013733
10.563	0.020905	-0.002289	-0.069122	-0.00061	-0.024261	0.15076	0.037231	-0.00061	0.11368	-0.045776	-0.041351	0.00061	0.069122	0.03891	0.26443	0.02121	-0.001373	-0.03479	-0.22827	-0.10254	0.090179	0.024414	-0.6839	-0.084991	-0.00946	-0.00946	0.63507	-0.002899	-0.33371	-0.031433	0.001221	0.003662
10.564	0.037079	-0.010376	-0.30212	0.012054	-0.039063	0.10681	-0.045013	0.001526	0.08728	0.000458	-0.074768	0.003052	-0.062103	0.078278	0.014038	0.003815	-0.009918	-0.022736	-0.17471	-0.045471	0.093231	0.014648	-0.62057	-0.10162	0.000153	-0.005493	0.73746	-0.003662	-0.28488	-0.050659	-0.002441	0.007629
10.565	0.028229	0.018005	-0.25955	0.011292	-0.050201	0.074615	-0.072174	0.003662	0.097046	0.032196	0.011597	0.001984	-0.22354	0.16007	0.23438	0.002289	-0.003357	0.006561	-0.2652	0.042419	0.091858	0.028839	-0.41229	-0.09552	-0.009766	-0.001526	0.52307	-0.007477	-0.22324	-0.080566	-0.001678	0.007935
10.566	0.032654	0.00351	-0.19104	0.022583	0.028992	0.035095	-0.063934	-0.004883	0.12085	-0.019379	0.052643	0.013733	-0.097656	0.074463	-0.17425	-0.006561	-0.001984	-0.061951	-0.19928	0.043488	0.088501	0.021973	-0.23804	-0.051575	0.00473	-0.005341	-0.34241	-0.004272	-0.17303	-0.068817	-0.001678	0.001068
10.567	0.02182	0.023193	0.10437	0.016174	0.061035	-0.073853	-0.026855	-0.008392	0.1001	-0.029907	-0.08255	0.005798	0.16754	-0.040131	-0.31021	-0.008698	0.005341	-0.058136	-0.47318	0.014648	0.083466	0.028687	-0.12177	-0.041809	-0.001526	0.000763	-0.29633	-0.002136	0.15625	-0.057373	-0.001068	-0.002136
10.568	0.014343	0.030823	-0.087128	-0.037537	0.063171	-0.15747	0.049438	0.008087	0.11948	-0.023956	-0.072021	0.00061	-0.037842	-0.081329	-0.2179	-0.002441	0.005798	-0.042419	-0.79132	-0.046539	0.086212	0.016479	-0.11871	-0.044098	-0.002136	-0.002289	0.14221	-0.005646	0.31097	-0.10132	-0.005341	-0.010071
10.569	0.007477	0.033417	-0.14038	-0.025024	0.027313	-0.093689	0.14114	0.00412	0.12924	-0.002899	-0.087738	-0.002594	-0.007782	-0.094299	-0.11398	0.004578	0.004425	0.002289	0.47775	-0.14816	0.075989	0.015106	-0.062561	0.005188	0.022278	-0.007782	-0.053711	-0.003967	0.15732	-0.040588	-0.001221	-0.025024
10.57	0.018158	-0.015411	0.086975	0.001831	0.005798	-0.083923	0.13306	-0.000153	0.056763	0.007477	-0.008698	-0.001068	0.006714	-0.13138	-0.039978	-0.004578	-0.011902	-0.076599	1.2553	-0.25024	0.083008	0.024261	-0.068512	0.008545	0.05249	-0.007935	-0.50568	-0.003052	0.008087	-0.062103	0.001221	-0.024872
10.571	0.024719	-0.007935	0.19272	0.025024	-0.011902	-0.045776	0.088959	-0.003204	-0.074768	-0.005341	0.011139	0.003052	-0.021362	-0.14618	0.22156	0.003967	-0.020447	-0.10025	0.72906	-0.19409	0.071259	0.015259	-0.15396	0.028992	0.037537	-0.001526	-0.68253	-0.005951	0.16266	-0.055084	-0.000916	-0.026398
10.572	0.016479	0.042419	0.13214	0.009003	-0.01358	-0.004272	0.044556	0.008087	-0.16098	-0.007019	-0.029755	-0.004272	-0.026245	-0.11154	0.24689	0	-0.010071	-0.088501	0.081482	-0.069122	0.072784	0.010071	-0.17548	-0.050507	0.040588	0.001221	-0.5278	-0.002441	-0.066986	-0.073242	-0.000153	-0.018921
10.573	0.008087	0.012512	0.021667	-0.011139	0.026398	0.04303	0.001068	0.011139	-0.078583	0.002136	0.053558	-0.005035	-0.056305	-0.13641	0.076294	0.007477	-0.018005	-0.076752	-0.1712	-0.080261	0.067902	0.043945	-0.28641	-0.060425	0.05127	0.002747	-0.051575	-0.001373	-0.37369	-0.1239	0	-0.019836
10.574	0.00412	-0.000763	0.19409	-0.008392	0.033264	0.063934	0.027161	0.020905	0.022278	0.006714	0.039978	-0.00473	-0.027771	-0.13168	-0.04303	0.007019	0.003052	-0.044098	0.084076	-0.16052	0.078583	0.032654	-0.31235	-0.050507	0.034637	-0.00885	0.098267	-0.00473	-0.34531	-0.12253	-0.003052	-0.017853
10.575	0.007019	-0.034943	0.15106	-0.011902	-0.009613	0.064545	-0.00946	0.014038	0.084686	0.017242	-0.12985	0.002441	0.04715	-0.12894	0.004578	0.004425	0.036011	-0.000763	0.037842	-0.006256	0.082703	0.023499	-0.3125	-0.015259	0.038147	-0.014801	-0.005188	-0.003967	-0.22812	-0.1149	-0.001221	-0.021057
10.576	0.000763	-0.054321	0.076447	0.002441	0.009766	0.033112	-0.024719	0.013275	0.089111	0.022125	-0.24994	-0.010529	0.11566	-0.052643	0.036011	0.008392	0.084839	0.032349	-0.040741	0.043793	0.063782	0.020294	-0.32806	-0.084076	0.023804	-0.014954	0.020142	-0.002441	-0.05127	-0.1712	-0.001526	-0.023193
10.577	-0.007019	-0.013275	0.044403	0.047455	0.05127	0.066833	-0.042267	0.014343	0.14999	0.019073	-0.1355	-0.002747	0.087891	-0.016937	0.050354	0.01236	0.11627	0.038757	-0.036316	0.096588	0.067444	0.008698	-0.26291	-0.07782	0.0177	-0.009003	0.50232	-0.002441	0.51346	-0.19959	0.000763	-0.021973
10.578	-0.014801	-0.013885	0.009308	0.017395	0.018768	0.057373	-0.068512	0.021057	0.08728	0.00824	-0.019684	0.000916	-0.15823	0.012817	-0.044098	0.004883	0.072632	0.005646	0.076447	0.10284	0.051117	0.001526	-0.26947	-0.055695	0.030365	-0.003662	0.72662	0.003204	0.77545	-0.1326	0.000305	-0.013123
10.579	-0.001984	0.010223	-0.015717	-0.003052	-0.007629	0.052948	-0.021973	0.023956	-0.1178	-0.010071	0.23041	-0.003815	-0.088959	0.039673	0.1445	0.02121	0.064087	0.030518	0.16663	0.13702	0.037537	-0.007324	-0.23224	-0.08606	0.004425	-0.003967	0.74432	-0.004425	0.34409	-0.070648	-0.001678	-0.00885
10.58	0.005035	0.034943	-0.028534	0.01358	-0.057678	0.056458	-0.011749	0.031281	-0.33722	-0.012665	0.22919	0.007477	-0.12329	0.053711	0.021515	0.004272	0.049744	0.000458	0.016022	0.14954	0.039063	0.011292	-0.2475	-0.12283	0.02121	-0.009613	0.87601	-0.002594	-0.27664	-0.026855	-0.001678	-0.006714
10.581	0.006561	0.063171	-0.007629	0.019531	-0.13245	0.037079	-0.048218	0.033722	-0.15778	0.003967	0.11765	-0.00351	-0.10422	0.057373	0.096436	0.000153	0.09903	-0.052338	0.1384	0.071106	0.03891	0.013733	-0.17883	-0.095367	0.008545	-0.013428	-0.30807	-0.005493	-0.020599	-0.035553	-0.006256	0.001221
10.582	0.010681	0.10788	0.14969	0.014801	-0.04303	-0.007629	-0.058289	0.011292	0.079346	0.024261	0.18341	0.005493	-0.0383	0.057831	0.068207	0.007782	0.12177	-0.034637	-0.001678	0.089874	0.035248	-0.01358	-0.15808	-0.064545	0.002899	-0.014954	-0.79315	-0.00351	0.30777	0.001678	-0.001221	-0.003052
10.583	0.007172	0.11932	0.04364	0.019684	0.058899	-0.042725	-0.11704	-0.012665	0.11902	-0.012512	-0.027924	0.003204	0.042267	0.075073	-0.19363	-0.012207	0.11414	-0.043488	-0.26489	0.1239	0.046387	0.009918	-0.12528	-0.030823	-0.005951	-0.026855	-0.81818	-0.006409	0.23346	0.092621	-0.000153	-0.010986
10.584	-0.006714	0.085754	-0.048828	0.00946	0.080566	-0.023956	-0.087891	-0.076904	0.10269	-0.043335	-0.30777	0.003662	0.15808	0.076752	-0.2124	-0.000305	0.065613	-0.060425	-0.12177	-0.099335	0.066986	0.037842	-0.16525	-0.010529	-0.005646	-0.03418	-0.67474	-0.009308	0.10117	0.15015	0.001221	-0.021667
10.585	-0.009918	0.13809	-0.053406	0.011597	0.066833	-0.003204	-0.045929	-0.014801	0.042419	-0.031281	-0.21698	0.00351	0.112	0.048676	-0.06897	0.006104	0.016785	-0.062714	0.52658	-0.16556	0.076447	0.031281	-0.22049	-0.03006	0.00824	-0.027008	-0.25559	-0.003815	0.005341	0.080872	0.001221	-0.026855
10.586	-0.006409	0.16693	0.094604	0.028076	0.04364	0.03479	0.056152	-0.028534	-0.045929	-0.0177	-0.023193	0.010681	0.060577	0.079956	0.007782	-0.001678	0.011902	-0.13001	-0.01358	-0.12558	0.061035	0.037537	-0.22659	-0.052643	0.000153	-0.012207	-0.26169	-0.00351	-0.049286	-0.018463	0.002594	-0.030365
10.587	0.005035	0.1561	0.077362	0.024719	-0.005798	0.005035	0.071259	0.015717	-0.07431	0.013428	0.21286	0.009155	-0.029755	0.018311	0.13962	0.004883	-0.014496	-0.16663	-0.12482	-0.031738	0.041504	0.018005	-0.19562	-0.060272	0.01358	-0.014648	-0.47821	-0.008698	-0.063934	0.016174	0	-0.035095
10.588	0.006714	0.1416	0.24674	-0.016785	0.034485	0.022736	0.026093	0.004578	0.033417	0.005188	0.24628	0.005798	-0.054932	0.003662	0.12085	0.010223	-0.061646	-0.19379	0.031433	0.11566	0.041962	0.026245	-0.14786	-0.059814	-0.00061	-0.011902	-0.34393	-0.00412	0.14023	-0.057831	-0.000916	-0.028839
10.589	0.000916	0.1358	0.15961	-0.008087	0.003357	0.036621	-0.042114	-0.006561	0.22614	-0.01236	0.097198	0.00412	-0.045166	0.009308	-0.13123	0.012512	-0.074158	-0.16388	0.080414	0.26764	0.031128	0.023499	-0.14465	-0.014191	-0.012512	-0.004578	-0.45563	-0.002747	0.13153	-0.087128	0.000153	-0.018005
10.59	-0.000153	0.15503	0.10513	-0.01236	-0.014038	0.036621	0.066986	-0.025635	0.32349	-0.010223	-0.034332	0.001068	-0.006866	0.015411	-0.044403	0.010223	-0.072327	-0.16739	-0.27786	0.2121	0.049744	0.045776	-0.17792	0.005646	-0.003662	-0.001678	-0.092468	-0.002441	-0.000153	-0.10208	0.000763	-0.012665
10.591	-0.01236	0.20203	0.12573	0.006104	-0.028534	0.06897	0.13916	-0.026093	0.18158	-0.005951	-0.044556	0.006866	0.035095	-0.034943	0.020599	-0.003967	-0.079498	-0.12543	-0.028839	0.03479	0.0383	0.036621	-0.23392	-0.015411	0.002289	-0.005341	0.32425	-0.002136	-0.063629	-0.10834	0.006714	-0.011292
10.592	0.019073	0.1683	0.097198	0.002441	-0.058899	0.087585	0.1358	-0.015564	0.10498	-0.005341	-0.052185	0.00061	0.051727	-0.027161	-0.14099	0.005035	-0.059509	-0.093079	0.4837	-0.052338	0.034027	0.008545	-0.23666	-0.064545	-0.006409	-0.002747	0.2359	-0.002136	-0.044403	-0.012207	0.000305	-0.010223
10.593	0.027466	0.20401	0.298	0.009155	-0.081787	0.099487	0.019836	-0.017242	0.062866	0.001068	-0.040283	0.014038	0.063782	-0.028381	-0.16907	-0.000763	-0.041656	-0.051117	0.466	-0.089874	0.043793	0.016479	-0.27985	-0.055847	-0.005035	-0.007019	0.16174	-0.004272	-0.097504	0.0914	0.000763	-0.010529
10.594	0.021515	0.099945	0.18906	-0.007782	0.003204	0.018311	-0.029297	-0.003662	0.096588	0.003815	0.01709	0.006104	-0.047913	-0.090485	0.072479	0.010834	-0.027161	-0.029144	0.13947	-0.067596	0.052948	0.021515	-0.26504	-0.078888	-0.005035	-0.002289	-0.049438	-0.005341	-0.055389	0.11276	-0.001984	-0.015106
10.595	0.020447	0.007782	0.016327	-0.000305	0.089111	-0.044098	-0.049438	-0.00824	0.061035	0.004578	-0.010223	0.002899	-0.080872	-0.048218	-0.17883	0.009003	-0.030823	-0.09552	-0.17456	-0.048828	0.063934	0.029602	-0.32272	-0.090485	-0.019226	0.001831	-0.24017	-0.002747	-0.006561	-0.003357	-0.001678	-0.005951
10.596	0.018768	-0.053864	-0.1329	0.007935	0.057831	-0.058594	-0.018158	-0.007782	0.071411	0.018311	-0.000916	0.009003	0.17303	-0.048981	-0.063629	0.002289	-0.011902	-0.07019	-0.065918	-0.085602	0.062408	0.01297	-0.29419	-0.084229	-0.006866	0.007935	-0.17166	-0.000763	0.049896	-0.075684	-0.00061	-0.008698
10.597	0.010834	-0.12512	-0.26779	0.015869	0.024261	-0.079956	0.029907	-0.005341	0.070496	-0.005798	-0.023651	0.005646	0.27527	-0.031891	-0.007935	0.00473	-0.012817	-0.045929	-0.059357	-0.083466	0.048523	0.027466	-0.29663	-0.068054	-0.003357	0.006714	0.016937	-0.001526	0.062561	-0.040894	0.000305	-0.000153
10.598	0.01236	-0.09201	-0.24796	0.012512	0.000916	-0.01236	0.020142	-0.004425	0.04776	-0.008545	-0.035095	0.010376	0.052643	0.056458	0.019836	0.001068	-0.018005	-0.03067	-0.093536	-0.041962	0.037842	0.012512	-0.27145	-0.065765	0.003662	-0.001221	0.13077	-0.005493	-0.058746	-0.005493	-0.006866	-0.007172
